# WaveFront *.obj file (generated by Cheetah3D)

mtllib box_n.mtl

g Box
v -0.500000 -0.500000 0.500000
v -0.500000 0.500000 0.500000
v 0.500000 0.500000 0.500000
v 0.500000 -0.500000 0.500000
v 0.500000 -0.500000 -0.500000
v 0.500000 0.500000 -0.500000
v -0.500000 0.500000 -0.500000
v -0.500000 -0.500000 -0.500000

vn 0.000000 0.000000 1.000000
vn 0.000000 0.000000 -1.000000
vn -1.000000 0.000000 0.000000
vn 1.000000 0.000000 0.000000
vn 0.000000 1.000000 0.000000
vn 0.000000 -1.000000 0.000000

usemtl default
f 3//1 2//1 1//1
f 1//1 4//1 3//1
f 7//2 6//2 5//2
f 5//2 8//2 7//2
f 2//3 7//3 8//3
f 8//3 1//3 2//3
f 6//4 3//4 4//4
f 4//4 5//4 6//4
f 6//5 7//5 2//5
f 2//5 3//5 6//5
f 4//6 1//6 8//6
f 8//6 5//6 4//6

