# WaveFront *.obj file (generated by Cheetah3D)

mtllib box.mtl

g Box
v -0.500000 -0.500000 0.500000
v -0.500000 0.500000 0.500000
v 0.500000 0.500000 0.500000
v 0.500000 -0.500000 0.500000
v 0.500000 -0.500000 -0.500000
v 0.500000 0.500000 -0.500000
v -0.500000 0.500000 -0.500000
v -0.500000 -0.500000 -0.500000

vt 0.000000 -476.500031
vt 0.000000 1.000000
vt 294920.000000 1.000000

vn 0.000000 -1.000000 0.000000
vn 0.000000 0.000000 1.000000
vn 0.000000 0.000000 -1.000000
vn -1.000000 0.000000 0.000000
vn 1.000000 0.000000 0.000000
vn 0.000000 1.000000 0.000000

usemtl Material
f 6/3/5 3/2/5 4/1/5
f 4/3/5 5/2/5 6/1/5
f 6/3/6 7/2/6 2/1/6
f 2/3/6 3/2/6 6/1/6

usemtl Material.2
f 8/3/1 5/2/1 4/1/1
f 7/3/3 6/2/3 5/1/3
f 5/3/3 8/2/3 7/1/3
f 4/3/1 1/2/1 8/1/1

usemtl Material.3
f 1/3/2 4/2/2 3/1/2
f 2/3/4 7/2/4 8/1/4
f 8/3/4 1/2/4 2/1/4
f 3/3/2 2/2/2 1/1/2

usemtl default

